Coordinates
version=1
nRows=24
nColumns=22
inDegrees=yes

Units are S.I. units (second, meters, Newtons, ...)
If the header above contains a line with 'inDegrees', this indicates whether rotational values are in degrees (yes) or radians (no).

endheader
time	pelvis_tilt	pelvis_list	pelvis_rotation	pelvis_tx	pelvis_ty	pelvis_tz	hip_flexion_r	hip_adduction_r	hip_rotation_r	knee_angle_r	ankle_angle_r	subtalar_angle_r	hip_flexion_l	hip_adduction_l	hip_rotation_l	knee_angle_l	ankle_angle_l	subtalar_angle_l	lumbar_extension	lumbar_bending	lumbar_rotation
      0.01000000	    -14.67743689	     -1.92063452	     -6.67902623	     -1.06585817	      0.97551369	     -0.21059113	     20.69296724	      2.53243240	     -0.06371453	    -17.26500688	     15.60564643	     -7.57477004	     20.98217976	     -0.97926927	     -8.09943742	    -16.48098164	     18.77902375	     -1.39597312	      7.90004593	      4.02674236	      4.63902194
      0.02000000	    -14.68884125	     -1.94323664	     -6.66755803	     -1.06583042	      0.97549951	     -0.21056793	     20.66998645	      2.55786910	     -0.05005589	    -17.20969923	     15.62783625	     -7.57491690	     20.99471356	     -1.00179821	     -8.06945212	    -16.48752059	     18.79538877	     -1.39068074	      7.92029533	      4.06092453	      4.62760494
      0.03000000	    -14.68780314	     -1.94197915	     -6.66882858	     -1.06581502	      0.97549863	     -0.21053632	     20.66707878	      2.55772008	     -0.05217063	    -17.20956010	     15.62521514	     -7.57466187	     20.99396822	     -1.00212806	     -8.06785537	    -16.49095911	     18.79608845	     -1.39014190	      7.92406110	      4.07271994	      4.62408884
      0.04000000	    -14.69270226	     -1.99776245	     -6.64070253	     -1.06580248	      0.97550468	     -0.21050713	     20.63715569	      2.60902261	     -0.09907589	    -17.15972909	     15.58520600	     -7.57007429	     21.01226991	     -1.05605468	     -8.02030504	    -16.52212698	     18.81627602	     -1.37807852	      7.92737768	      4.14367840	      4.57206013
      0.05000000	    -14.69269839	     -1.99408896	     -6.64734770	     -1.06578551	      0.97550516	     -0.21044033	     20.63361127	      2.60894299	     -0.10500458	    -17.15463910	     15.58567925	     -7.57022221	     21.01137122	     -1.05646420	     -8.01716382	    -16.52400248	     18.81674344	     -1.37723083	      7.93142596	      4.15242002	      4.57017728
      0.06000000	    -14.69264504	     -2.04228041	     -6.62179002	     -1.06575176	      0.97552002	     -0.21038880	     20.59855073	      2.65257369	     -0.15867778	    -17.10516645	     15.56403697	     -7.56862147	     21.01591509	     -1.10185759	     -7.96550011	    -16.53997176	     18.83149589	     -1.35974433	      7.93190821	      4.21343534	      4.52679465
      0.07000000	    -14.69247633	     -2.03705973	     -6.63095286	     -1.06574487	      0.97552123	     -0.21029231	     20.59650729	      2.65330633	     -0.16351289	    -17.10139084	     15.56400353	     -7.56865385	     21.01589637	     -1.10359952	     -7.96269447	    -16.54266355	     18.83183506	     -1.35909404	      7.93245454	      4.21746491	      4.52504745
      0.08000000	    -14.69272931	     -2.03300315	     -6.64079723	     -1.06574356	      0.97552006	     -0.21018337	     20.59487516	      2.65639573	     -0.16941075	    -17.09651234	     15.56394064	     -7.56868205	     21.01646666	     -1.10793250	     -7.95991129	    -16.54546826	     18.83220736	     -1.35824842	      7.93154312	      4.22111561	      4.52332988
      0.09000000	    -14.69306432	     -2.02951606	     -6.65098999	     -1.06574575	      0.97551820	     -0.21006735	     20.59418274	      2.66088873	     -0.17450806	    -17.09265065	     15.56371420	     -7.56881115	     21.01759645	     -1.11387471	     -7.95814011	    -16.54922067	     18.83280257	     -1.35737392	      7.92906241	      4.22445727	      4.52183409
      0.10000000	    -14.69335718	     -2.02612351	     -6.66168444	     -1.06574988	      0.97551389	     -0.20994576	     20.59482082	      2.66635444	     -0.17765940	    -17.09116568	     15.56333584	     -7.56916128	     21.01913298	     -1.12080946	     -7.95829741	    -16.55424560	     18.83386618	     -1.35655825	      7.92511134	      4.22707529	      4.52056192
      0.11000000	    -14.69416374	     -2.04258672	     -6.68955779	     -1.06577839	      0.97550028	     -0.20977801	     20.60098673	      2.70180785	     -0.15797804	    -17.10146535	     15.55488796	     -7.57775527	     21.03572215	     -1.16334336	     -8.01365771	    -16.59277665	     18.86323441	     -1.34517035	      7.91295555	      4.25324692	      4.54404959
      0.12000000	    -14.69511922	     -2.03554364	     -6.70083908	     -1.06576526	      0.97549502	     -0.20965673	     20.60317918	      2.70371141	     -0.15711806	    -17.10257438	     15.55461562	     -7.57839744	     21.03471423	     -1.16624283	     -8.01382869	    -16.59426351	     18.86377678	     -1.34432068	      7.91100600	      4.25255435	      4.54002276
      0.13000000	    -14.69948653	     -2.01159345	     -6.74596441	     -1.06577066	      0.97547367	     -0.20946784	     20.63073474	      2.70430947	     -0.10114321	    -17.13918387	     15.55933117	     -7.59713154	     21.03461436	     -1.17062314	     -8.09604830	    -16.59233641	     18.87559931	     -1.32762501	      7.90972394	      4.23533934	      4.57516485
      0.14000000	    -14.70279025	     -2.00557045	     -6.75925367	     -1.06573260	      0.97546533	     -0.20933337	     20.63885494	      2.70949746	     -0.09181231	    -17.15160153	     15.55979756	     -7.60163705	     21.02653451	     -1.17704789	     -8.11448854	    -16.57856898	     18.87455240	     -1.32310928	      7.91237271	      4.23748953	      4.56147166
      0.15000000	    -14.70800683	     -1.98927790	     -6.79524654	     -1.06569127	      0.97545075	     -0.20914654	     20.65398592	      2.71364771	     -0.05919178	    -17.16926655	     15.56106986	     -7.62169490	     21.02030069	     -1.18692859	     -8.19074608	    -16.56872147	     18.87529944	     -1.30513004	      7.91707344	      4.22823032	      4.58552496
      0.16000000	    -14.71271715	     -1.98630021	     -6.80667942	     -1.06563257	      0.97544092	     -0.20899069	     20.66200969	      2.72278846	     -0.05174967	    -17.18273330	     15.55984430	     -7.62633727	     21.00871789	     -1.19832681	     -8.21387826	    -16.54819787	     18.87696815	     -1.30109860	      7.92226004	      4.23252186	      4.56294703
      0.17000000	    -14.71944503	     -1.98306432	     -6.82570799	     -1.06555712	      0.97542995	     -0.20881244	     20.67113046	      2.73439653	     -0.04377555	    -17.19491452	     15.55739082	     -7.63340164	     20.99641687	     -1.21422185	     -8.25583163	    -16.52615981	     18.87881329	     -1.29573445	      7.93035830	      4.23849337	      4.54254941
      0.18000000	    -14.72713285	     -1.97929541	     -6.85191172	     -1.06548647	      0.97541694	     -0.20860157	     20.68224664	      2.74996785	     -0.02803525	    -17.20767672	     15.55273545	     -7.64332536	     20.98593983	     -1.23426959	     -8.30805117	    -16.50692280	     18.88217974	     -1.28764734	      7.93890337	      4.24437462	      4.52432946
      0.19000000	    -14.74317285	     -1.97281601	     -6.90303908	     -1.06543404	      0.97538976	     -0.20832163	     20.70177375	      2.77644114	      0.02661938	    -17.21499053	     15.53854586	     -7.67566159	     20.99450263	     -1.26746161	     -8.40155776	    -16.51303151	     18.89577197	     -1.25541667	      7.95312431	      4.24676678	      4.54787323
      0.20000000	    -14.75142689	     -1.96951678	     -6.92220253	     -1.06539043	      0.97537441	     -0.20808379	     20.71646324	      2.79282055	      0.03710706	    -17.23143424	     15.53656477	     -7.68228858	     20.98842782	     -1.28498322	     -8.41988327	    -16.49745420	     18.89902012	     -1.24815915	      7.95562857	      4.24798051	      4.51143276
      0.21000000	    -14.80669434	     -1.97306585	     -6.96014957	     -1.06542354	      0.97527495	     -0.20777815	     20.78728314	      2.83378927	      0.07725485	    -17.25207673	     15.51575993	     -7.73384493	     21.05617656	     -1.33029429	     -8.47370593	    -16.52622294	     18.92750877	     -1.18370053	      8.00537124	      4.26102429	      4.50026371
      0.22000000	    -14.81448079	     -1.97186706	     -6.97514648	     -1.06543029	      0.97525300	     -0.20749540	     20.80522316	      2.85519944	      0.08592406	    -17.27168157	     15.51804332	     -7.73809152	     21.06299044	     -1.35298812	     -8.49008891	    -16.53030027	     18.92563439	     -1.18053074	      7.99960448	      4.25579365	      4.45182571
      0.23000000	    -14.87489827	     -1.99389227	     -6.98832039	     -1.06554512	      0.97512967	     -0.20718753	     20.88033294	      2.90886409	      0.08999418	    -17.28744194	     15.52056083	     -7.76243082	     21.17045354	     -1.41631502	     -8.52629302	    -16.61360089	     18.95733728	     -1.15675408	      8.03861975	      4.27957719	      4.40823900
      0.24000000	    -14.95674415	     -1.99807647	     -6.99411319	     -1.06568556	      0.97497396	     -0.20688176	     20.99319966	      2.94606328	      0.09562870	    -17.32641477	     15.50171878	     -7.78867292	     21.29192396	     -1.45435476	     -8.51655185	    -16.67253732	     18.97787646	     -1.12290779	      8.10581643	      4.28136222	      4.34497428
